<svg xmlns="http://www.w3.org/2000/svg" viewBox="0 0 193 107">
	<path d="M 125.6 89 L 108.4 89 L 108.4 80 L 126.6 80 Q 133.2 80 138.35 77.85 Q 143.5 75.7 147.15 71.9 Q 150.8 68.1 152.7 63 A 30.629 30.629 0 0 0 154.554 53.824 A 35.529 35.529 0 0 0 154.6 52 A 34.977 34.977 0 0 0 154.007 45.432 A 28.397 28.397 0 0 0 152.7 40.75 Q 150.8 35.7 147.15 31.95 Q 143.5 28.2 138.35 26.2 A 28.936 28.936 0 0 0 131.77 24.536 A 38.201 38.201 0 0 0 126.6 24.2 L 108.4 24.2 L 108.4 15.2 L 125.6 15.2 A 54.265 54.265 0 0 1 133.765 15.784 Q 138.309 16.476 142.153 17.988 A 33.143 33.143 0 0 1 142.8 18.25 A 37.557 37.557 0 0 1 150.605 22.612 A 31.924 31.924 0 0 1 154.95 26.45 Q 159.8 31.6 162.2 37.95 Q 164.6 44.3 164.6 50.9 L 164.6 53.1 A 35.918 35.918 0 0 1 162.56 64.9 A 40.995 40.995 0 0 1 162.2 65.9 Q 159.8 72.3 154.95 77.5 Q 150.1 82.7 142.8 85.85 A 37.027 37.027 0 0 1 134.31 88.308 Q 130.495 88.957 126.178 88.997 A 61.517 61.517 0 0 1 125.6 89 Z M 29.8 63.8 L 29.8 61.3 L 39.6 61.3 L 39.6 65.6 A 20.526 20.526 0 0 0 40.12 70.36 A 13.541 13.541 0 0 0 44 77.25 A 15.073 15.073 0 0 0 52.884 81.272 A 20.38 20.38 0 0 0 55.2 81.4 A 18.266 18.266 0 0 0 60.51 80.661 A 14.656 14.656 0 0 0 66.4 77.25 A 13.541 13.541 0 0 0 70.28 70.36 A 20.526 20.526 0 0 0 70.8 65.6 L 70.8 22.4 L 80.6 22.4 L 80.6 63.8 Q 80.6 72.6 77.25 78.5 Q 73.9 84.4 68.15 87.4 A 26.57 26.57 0 0 1 58.281 90.256 A 32.446 32.446 0 0 1 55.2 90.4 A 29.057 29.057 0 0 1 46.637 89.169 A 26.032 26.032 0 0 1 42.3 87.4 Q 36.5 84.4 33.15 78.5 Q 30.114 73.153 29.829 65.425 A 44.146 44.146 0 0 1 29.8 63.8 Z M 9 107 L 0 107 L 0 0 L 9 0 Z M 184 107 L 193 107 L 193 0 L 184 0 Z M 110.4 89 L 100.6 89 L 100.6 15.2 L 110.4 15.2 L 110.4 89 Z M 80.6 24.4 L 39.4 24.4 L 39.4 15.6 L 80.6 15.6 L 80.6 24.4 Z M 21 8 L 4 8 L 4 0 L 21 0 Z M 172 8 L 189 8 L 189 0 L 172 0 Z M 21 107 L 4 107 L 4 99 L 21 99 Z M 172 107 L 189 107 L 189 99 L 172 99 Z" stroke="#FFFFFF" stroke-width="2" fill="#FFF"/>
</svg>