<svg xmlns="http://www.w3.org/2000/svg" width="640" height="640" viewBox="0 0 640 640" version="1.1"><path d="M 452.250 6.031 C 450.079 6.904, 450 7.390, 450 19.904 C 450 31.544, 449.627 34.337, 446.356 47.154 C 443.941 56.618, 441.243 64.349, 438.356 70.072 C 435.960 74.823, 434 79.239, 434 79.887 C 434 82.726, 428.649 82.756, 407.500 80.037 C 387.156 77.422, 371.327 76.795, 314 76.335 C 252.108 75.838, 232.530 76.453, 217.275 79.375 L 210.050 80.758 200.775 71.483 C 191.258 61.967, 188.030 56.801, 179.227 37 C 177.638 33.425, 175.699 29.981, 174.919 29.348 C 170.443 25.713, 156.805 24.771, 152.213 27.780 C 149.052 29.851, 145.161 38.301, 138.757 57 C 129.905 82.845, 128.836 87.767, 128.658 103.500 C 128.558 112.390, 128.994 119.536, 129.853 123.078 C 131.095 128.193, 131.043 129.022, 129.230 133.078 C 127.367 137.245, 123.867 148.143, 122.428 154.259 C 122.071 155.777, 121.378 157.266, 120.889 157.568 C 120.400 157.871, 120 159.195, 120 160.510 C 120 161.826, 119.297 165.512, 118.438 168.701 C 117.579 171.891, 116.452 176.975, 115.934 180 C 115.415 183.025, 114.531 187.750, 113.970 190.500 C 112.691 196.761, 111.065 207.800, 110.362 215 C 110.066 218.025, 109.414 220.927, 108.912 221.450 C 108.410 221.972, 108 225.595, 108 229.500 C 108 233.405, 107.582 237.028, 107.070 237.550 C 106.559 238.073, 105.896 242.325, 105.598 247 C 105.091 254.931, 104.671 259.471, 101.964 286.250 C 101.394 291.887, 100.690 301, 100.400 306.500 C 100.109 312, 99.450 316.927, 98.935 317.450 C 98.421 317.972, 98 322.495, 98 327.500 C 98 332.505, 97.594 337.027, 97.098 337.550 C 96.603 338.072, 95.938 343.225, 95.622 349 C 94.888 362.414, 93.567 373.273, 92.451 375.080 C 91.970 375.858, 91.453 379.645, 91.303 383.497 C 91.018 390.795, 89.783 405.424, 88.010 422.500 C 87.439 428, 86.731 434.975, 86.437 438 C 86.144 441.025, 85.497 444.400, 85 445.500 C 84.503 446.600, 83.844 449.975, 83.535 453 C 83.227 456.025, 82.541 461.650, 82.011 465.500 C 81.481 469.350, 80.618 475.650, 80.094 479.500 C 79.570 483.350, 78.630 488.750, 78.005 491.500 C 77.381 494.250, 76.472 499.200, 75.986 502.500 C 74.589 511.988, 73.440 517.462, 69.900 531.500 C 69.345 533.700, 68.548 537.300, 68.130 539.500 C 67.711 541.700, 66.624 545.975, 65.714 549 C 62.104 560.998, 60 568.784, 60 570.142 C 60 570.927, 58.240 577.179, 56.090 584.035 C 53.939 590.891, 51.046 600.183, 49.661 604.685 C 47.556 611.526, 44.167 620.713, 38.921 633.797 C 38.414 635.060, 38 636.523, 38 637.047 C 38 637.619, 45.918 638, 57.799 638 L 77.598 638 78.799 634.679 C 79.460 632.852, 80 630.404, 80 629.238 C 80 628.072, 80.450 626.840, 81 626.500 C 81.550 626.160, 82 624.810, 82 623.500 C 82 622.190, 82.450 620.840, 83 620.500 C 83.550 620.160, 84 618.810, 84 617.500 C 84 616.190, 84.450 614.840, 85 614.500 C 85.550 614.160, 86 612.810, 86 611.500 C 86 610.190, 86.450 608.840, 87 608.500 C 87.550 608.160, 88 606.810, 88 605.500 C 88 604.190, 88.450 602.840, 89 602.500 C 89.550 602.160, 90 600.360, 90 598.500 C 90 596.640, 90.450 594.840, 91 594.500 C 91.550 594.160, 92 592.810, 92 591.500 C 92 590.190, 92.450 588.840, 93 588.500 C 93.550 588.160, 94 586.360, 94 584.500 C 94 582.640, 94.450 580.840, 95 580.500 C 95.550 580.160, 96 578.810, 96 577.500 C 96 576.190, 96.450 574.840, 97 574.500 C 97.550 574.160, 98 572.360, 98 570.500 C 98 568.640, 98.450 566.840, 99 566.500 C 99.550 566.160, 100 564.360, 100 562.500 C 100 560.640, 100.450 558.840, 101 558.500 C 101.550 558.160, 102 556.409, 102 554.608 C 102 552.807, 102.322 551.012, 102.715 550.618 C 103.730 549.604, 105.903 541.012, 105.956 537.809 C 105.980 536.329, 106.390 534.877, 106.867 534.582 C 107.681 534.079, 108.510 529.859, 109.633 520.500 C 109.897 518.300, 110.510 515.600, 110.995 514.500 C 111.479 513.400, 112.141 510.700, 112.465 508.500 C 112.789 506.300, 113.507 502.025, 114.061 499 C 115.759 489.727, 116.973 481.759, 117.565 476 C 117.877 472.975, 118.533 469.600, 119.024 468.500 C 119.515 467.400, 120.135 463.800, 120.403 460.500 C 120.670 457.200, 121.365 451.575, 121.948 448 C 124.124 434.654, 125.166 425.191, 125.637 414.500 C 125.904 408.450, 126.545 403.072, 127.061 402.550 C 127.578 402.027, 128 397.442, 128 392.359 C 128 387.276, 128.450 382.840, 129 382.500 C 129.550 382.160, 130 378.335, 130 374 C 130 369.665, 130.450 365.840, 131 365.500 C 131.552 365.159, 132 360.676, 132 355.500 C 132 350.324, 132.448 345.841, 133 345.500 C 133.552 345.159, 134 340.656, 134 335.441 C 134 329.814, 134.404 326, 135 326 C 135.600 326, 136 322, 136 316 C 136 310, 136.400 306, 137 306 C 137.588 306, 138 302.520, 138 297.559 C 138 292.916, 138.450 288.840, 139 288.500 C 139.576 288.144, 140 282.843, 140 276 C 140 269.157, 140.424 263.856, 141 263.500 C 141.558 263.155, 142 258.509, 142 253 C 142 247.491, 142.442 242.845, 143 242.500 C 143.550 242.160, 144 238.560, 144 234.500 C 144 230.440, 144.450 226.840, 145 226.500 C 145.550 226.160, 146 223.460, 146 220.500 C 146 217.540, 146.450 214.840, 147 214.500 C 147.550 214.160, 148 211.460, 148 208.500 C 148 205.540, 148.450 202.840, 149 202.500 C 149.550 202.160, 150 199.460, 150 196.500 C 150 193.540, 150.450 190.840, 151 190.500 C 151.550 190.160, 152 187.910, 152 185.500 C 152 183.090, 152.450 180.840, 153 180.500 C 153.550 180.160, 154 178.360, 154 176.500 C 154 174.640, 154.450 172.840, 155 172.500 C 155.550 172.160, 156 170.360, 156 168.500 C 156 166.640, 156.450 164.840, 157 164.500 C 157.550 164.160, 158 162.810, 158 161.500 C 158 160.190, 158.450 158.840, 159 158.500 C 159.550 158.160, 160 157.095, 160 156.134 C 160 153.466, 166.495 141.142, 169.677 137.772 C 172.193 135.107, 184.948 128, 187.214 128 C 187.699 128, 189.959 127.100, 192.236 126 C 194.513 124.900, 197.165 124, 198.129 124 C 199.093 124, 200.160 123.550, 200.500 123 C 200.840 122.450, 202.190 122, 203.500 122 C 204.810 122, 206.160 121.550, 206.500 121 C 206.840 120.450, 208.126 120, 209.359 120 C 210.592 120, 212.028 119.619, 212.550 119.154 C 213.073 118.688, 216.650 117.797, 220.500 117.173 C 224.350 116.549, 229.075 115.783, 231 115.470 C 232.925 115.158, 237.537 114.648, 241.250 114.338 C 244.963 114.028, 248 113.368, 248 112.871 C 248 111.675, 359.019 111.771, 360.462 112.969 C 361.060 113.465, 366.714 114.085, 373.025 114.346 C 387.287 114.936, 407.405 116.603, 416 117.906 C 431.460 120.251, 455.444 125.516, 461 127.785 C 467.623 130.490, 475.512 144.394, 482.400 165.500 C 484.374 171.550, 486.442 177.882, 486.995 179.571 C 487.548 181.260, 488.005 183.960, 488.011 185.571 C 488.017 187.182, 488.672 190.642, 489.466 193.261 C 492.391 202.901, 494.884 221.341, 495.582 238.500 C 495.850 245.100, 496.495 251.400, 497.014 252.500 C 498.161 254.929, 498.868 278.442, 499.526 336 C 499.806 360.509, 500.442 380.373, 500.981 381.500 C 501.508 382.600, 502.164 394.300, 502.439 407.500 C 502.714 420.700, 503.416 435.775, 503.999 441 C 504.581 446.225, 505.304 453.875, 505.604 458 C 505.905 462.125, 506.566 465.928, 507.075 466.450 C 507.584 466.973, 508 470.208, 508 473.641 C 508 477.074, 508.450 480.160, 509 480.500 C 509.550 480.840, 510 483.926, 510 487.359 C 510 490.792, 510.410 494.027, 510.912 494.550 C 511.414 495.072, 512.066 497.975, 512.362 501 C 513.049 508.026, 514.342 515.834, 516.998 529 C 518.163 534.775, 519.504 541.525, 519.977 544 C 520.959 549.128, 522.123 553.901, 524.491 562.500 C 525.399 565.800, 527.064 572.100, 528.190 576.500 C 529.316 580.900, 531.042 586.975, 532.025 590 C 533.008 593.025, 534.362 597.975, 535.034 601 C 535.706 604.025, 537.832 612.125, 539.757 619 C 541.683 625.875, 543.474 632.962, 543.738 634.750 L 544.219 638 565.218 638 L 586.217 638 585.509 635.250 C 585.120 633.737, 584.685 631.506, 584.543 630.291 C 584.401 629.076, 583.526 626.926, 582.600 625.513 C 581.675 624.100, 581.187 622.506, 581.517 621.972 C 581.848 621.437, 581.630 621, 581.034 621 C 579.230 621, 577.693 615.812, 579.211 614.848 C 580.179 614.234, 580.087 614.027, 578.843 614.015 C 577.700 614.005, 576.643 612.216, 575.436 608.250 C 574.474 605.087, 573.307 602.072, 572.843 601.550 C 572.379 601.027, 572 599.592, 572 598.359 C 572 597.126, 571.598 595.869, 571.106 595.565 C 570.614 595.261, 569.977 593.322, 569.690 591.256 C 568.767 584.599, 567.047 577.801, 565.504 574.708 C 564.677 573.050, 564 570.438, 564 568.905 C 564 567.372, 563.598 565.869, 563.106 565.565 C 562.614 565.261, 561.975 563.322, 561.687 561.256 C 561.399 559.190, 560.696 555.700, 560.126 553.500 C 559.556 551.300, 558.810 548.150, 558.469 546.500 C 558.128 544.850, 557.464 542.600, 556.993 541.500 C 556.155 539.544, 555.425 536.038, 554.391 529 C 554.108 527.075, 553.485 524.600, 553.006 523.500 C 552.005 521.198, 551.082 516.447, 550.383 510 C 550.115 507.525, 549.495 504.600, 549.005 503.500 C 548.514 502.400, 547.852 499.475, 547.532 497 C 547.213 494.525, 546.487 489.575, 545.919 486 C 545.352 482.425, 544.671 476.350, 544.407 472.500 C 544.143 468.650, 543.506 464.600, 542.992 463.500 C 541.963 461.300, 541.250 450.866, 540.465 426.500 C 540.181 417.700, 539.516 409.600, 538.987 408.500 C 538.457 407.400, 537.798 394.800, 537.522 380.500 C 537.245 366.200, 536.766 340.775, 536.455 324 C 536.141 307.004, 535.473 293.079, 534.946 292.550 C 534.399 292, 534 280.308, 534 264.800 C 534 247.600, 533.642 238, 533 238 C 532.394 238, 532 233.667, 532 227 C 532 220.333, 531.606 216, 531 216 C 530.450 216, 530 213.552, 530 210.559 C 530 207.566, 529.550 204.840, 529 204.500 C 528.450 204.160, 528 201.685, 528 199 C 528 196.315, 527.550 193.840, 527 193.500 C 526.450 193.160, 526 190.910, 526 188.500 C 526 186.090, 525.550 183.840, 525 183.500 C 524.450 183.160, 524 181.135, 524 179 C 524 176.865, 523.550 174.840, 523 174.500 C 522.450 174.160, 522 172.585, 522 171 C 522 169.415, 521.550 167.840, 521 167.500 C 520.450 167.160, 520 165.360, 520 163.500 C 520 161.640, 519.550 159.840, 519 159.500 C 518.450 159.160, 518 157.810, 518 156.500 C 518 155.190, 517.550 153.840, 517 153.500 C 516.450 153.160, 516 151.639, 516 150.119 C 516 148.600, 515.263 145.195, 514.363 142.552 C 512.851 138.114, 512.849 136.523, 514.336 121.624 C 517.325 91.681, 515.558 77.040, 505.809 51 C 497.638 29.177, 480.210 8.841, 470.818 10.172 C 468.727 10.468, 468.432 11.185, 467.802 17.500 C 466.987 25.671, 463.605 46.717, 462.178 52.500 C 459.980 61.407, 453.252 78, 451.839 78 C 450.665 78, 450.713 77.774, 453.382 70.761 C 458.728 56.714, 462.344 41.826, 464.012 27 C 464.476 22.875, 465.157 18.088, 465.525 16.363 C 466.348 12.505, 464.114 8.702, 459.747 6.524 C 456.305 4.807, 455.438 4.750, 452.250 6.031 M 165.928 36.500 C 165.404 40.513, 166.551 45.208, 169.059 49.316 C 170.677 51.965, 172 54.538, 172 55.033 C 172 59.106, 183.646 75.754, 185.323 74.077 C 185.966 73.434, 183.833 68.232, 179.152 59.024 C 175.219 51.285, 172 44.296, 172 43.492 C 172 41.786, 166.122 35.017, 165.928 36.500 M 479.524 43.595 C 479.079 44.643, 478.352 47.525, 477.908 50 C 477.464 52.475, 476.614 57.139, 476.018 60.364 C 475.423 63.589, 473.376 69.562, 471.468 73.636 C 469.561 77.710, 468 82.132, 468 83.463 C 468 84.793, 467.550 86.160, 467 86.500 C 465.554 87.394, 465.769 91, 467.269 91 C 469.060 91, 486.303 99.596, 491.318 102.989 C 493.618 104.545, 496.611 107.006, 497.970 108.458 C 500.215 110.857, 500.504 110.933, 501.150 109.299 C 502.537 105.782, 501.988 95.598, 500.112 90.067 C 499.074 87.005, 497.224 80.675, 496.002 76 C 494.779 71.325, 492.029 63.797, 489.890 59.272 C 487.750 54.746, 486 50.366, 486 49.538 C 486 48.709, 484.725 46.605, 483.167 44.860 C 480.553 41.935, 480.270 41.837, 479.524 43.595 M 152.641 62.209 C 152.303 63.469, 152.021 66.525, 152.012 69 C 151.999 73.021, 151.403 76.516, 147.919 93 C 146.265 100.828, 145.713 106, 146.532 106 C 146.968 106, 149.389 104.677, 151.912 103.061 C 156.206 100.309, 163.637 96.687, 173.869 92.359 L 178.237 90.510 173.300 86.005 C 170.585 83.527, 167.611 79.925, 166.690 78 C 164.340 73.083, 155.727 60.676, 154.377 60.262 C 153.760 60.073, 152.978 60.949, 152.641 62.209 M 188.250 79.288 C 190.313 81.054, 192 83.063, 192 83.750 C 192 84.438, 192.675 85, 193.500 85 C 195.193 85, 195.253 84.824, 194.364 82.505 C 194.014 81.593, 192.664 80.442, 191.364 79.948 C 190.064 79.454, 189 78.363, 189 77.525 C 189 76.599, 188.116 76.015, 186.750 76.038 C 184.717 76.071, 184.862 76.385, 188.250 79.288 M 379 165.316 C 375.975 167.135, 372.994 169.637, 372.376 170.876 C 371.758 172.114, 370.159 174.336, 368.823 175.814 C 367.487 177.291, 365.115 180.975, 363.552 184 C 361.988 187.025, 360.182 190.175, 359.538 191 C 358.893 191.825, 355.518 198.125, 352.036 205 C 348.554 211.875, 344.940 218.625, 344.005 220 C 343.071 221.375, 341.778 224.055, 341.133 225.955 C 340.488 227.856, 339.198 230.556, 338.265 231.955 C 337.332 233.355, 334.814 237.875, 332.669 242 C 330.524 246.125, 328.231 250.175, 327.574 251 C 326.916 251.825, 324.874 255.425, 323.035 259 C 321.196 262.575, 318.957 266.625, 318.060 268 C 316.455 270.459, 315.331 272.804, 313.145 278.252 C 312.156 280.718, 306.796 284.987, 304.678 284.996 C 304.007 284.999, 290.861 258.432, 286.866 249 C 286.284 247.625, 285.184 245.375, 284.421 244 C 280.470 236.874, 278.019 231.273, 278.010 229.350 C 278.004 228.168, 276.377 224.793, 274.392 221.850 C 272.408 218.908, 269.959 214.412, 268.950 211.860 C 267.941 209.308, 265.610 204.808, 263.770 201.860 C 261.929 198.912, 259.333 194.250, 258 191.500 C 254.578 184.441, 247.692 173.940, 244.602 171.068 C 241.412 168.105, 235.763 166.035, 230.809 166.015 C 228.779 166.007, 226.840 165.550, 226.500 165 C 226.146 164.427, 220.979 164, 214.408 164 C 204.288 164, 202.377 164.282, 198.217 166.392 C 192.337 169.374, 191.008 170.885, 187.136 179 C 183.854 185.877, 182.750 194.150, 184.836 196.236 C 185.476 196.876, 186 198.293, 186 199.386 C 186 200.478, 186.829 202.300, 187.842 203.436 C 188.856 204.571, 190.727 208.200, 192 211.500 C 193.273 214.800, 195.089 218.400, 196.034 219.500 C 196.980 220.600, 198.278 223.140, 198.920 225.144 C 200.189 229.113, 212.480 253.661, 214.293 255.851 C 214.909 256.594, 215.510 257.866, 215.629 258.679 C 215.952 260.877, 218.911 266.827, 220.024 267.515 C 220.923 268.071, 226 278.358, 226 279.625 C 226 279.937, 226.838 281.386, 227.861 282.846 C 228.885 284.306, 230.307 287.300, 231.021 289.500 C 231.735 291.700, 233.445 295.525, 234.820 298 C 238.391 304.428, 237.976 303.601, 248.620 325.500 C 253.966 336.500, 259.610 347.376, 261.163 349.669 C 262.935 352.288, 263.557 353.981, 262.834 354.222 C 262.083 354.472, 262.346 355.381, 263.591 356.835 C 264.641 358.062, 265.532 359.388, 265.571 359.782 C 265.611 360.177, 266.254 361.756, 267.001 363.291 C 268.211 365.778, 268.122 366.541, 266.184 370.291 C 264.989 372.606, 263.446 375.383, 262.755 376.462 C 261.635 378.213, 258.357 383.520, 255.520 388.174 C 252.501 393.128, 242 412.447, 242 413.047 C 242 414.235, 206.829 483.397, 205.370 485.079 C 204.616 485.947, 204 487.309, 204 488.106 C 204 488.903, 203.213 490.668, 202.251 492.027 C 201.290 493.387, 199.562 496.300, 198.411 498.500 C 182.722 528.506, 177.067 539.024, 175.563 541 C 174.935 541.825, 173.567 544.300, 172.523 546.500 C 165.343 561.630, 166.255 571.928, 175.758 583.030 C 180.120 588.126, 188.206 592, 194.481 592 C 196.915 592, 200.064 592.528, 201.480 593.173 C 203.449 594.070, 204.330 594.070, 205.227 593.173 C 205.872 592.528, 208.014 592, 209.988 592 C 215.717 592, 221.120 585.456, 233.516 563.500 C 239.417 553.050, 245.163 542.925, 246.287 541 C 247.411 539.075, 253.151 528.275, 259.042 517 C 264.933 505.725, 273.028 490.425, 277.030 483 C 281.031 475.575, 286.824 464.775, 289.903 459 C 292.981 453.225, 296.871 446.475, 298.547 444 C 300.223 441.525, 301.911 438.675, 302.298 437.667 C 303.077 435.637, 304.968 435.834, 306.070 438.060 C 306.462 438.852, 311.578 449.400, 317.439 461.500 C 323.300 473.600, 329.034 485.300, 330.179 487.500 C 333.571 494.012, 366.358 559.356, 368.102 563.079 C 376.241 580.459, 385.509 591.351, 394.688 594.321 C 400.559 596.221, 404 596.472, 404 595 C 404 594.450, 405.182 594, 406.627 594 C 411.631 594, 421.749 588.089, 425.369 583.049 C 432.843 572.646, 434 569.626, 434 560.524 C 434 555.901, 433.600 551.871, 433.111 551.568 C 432.622 551.266, 431.910 549.777, 431.529 548.259 C 431.149 546.742, 422.999 529.708, 413.419 510.407 C 403.838 491.106, 396 474.969, 396 474.548 C 396 474.127, 388.868 459.318, 380.150 441.641 C 371.433 423.963, 363.221 407.025, 361.902 404 C 360.583 400.975, 355.551 390.662, 350.719 381.082 C 344.679 369.106, 342.258 363.342, 342.968 362.632 C 343.535 362.065, 344 360.982, 344 360.226 C 344 358.352, 352.303 342.054, 360.672 327.500 C 364.467 320.900, 369.750 311.225, 372.413 306 C 376.783 297.422, 384.457 283.383, 389.084 275.500 C 390.052 273.850, 395.436 263.500, 401.048 252.500 C 406.660 241.500, 413.020 229.453, 415.182 225.729 C 417.343 222.006, 420.990 215.031, 423.285 210.229 C 426.916 202.632, 427.505 200.439, 427.828 193.320 C 428.190 185.342, 428.111 185.007, 424.629 179.761 C 417.149 168.491, 405.101 162.039, 391.500 162.019 C 385.343 162.010, 383.838 162.407, 379 165.316 M 586.182 630.686 C 587.949 634.837, 589.234 635.969, 587.929 632.225 C 587.310 630.449, 586.394 628.743, 585.894 628.434 C 585.394 628.125, 585.524 629.139, 586.182 630.686" stroke="none" fill="#fafafa" fill-rule="evenodd"/></svg>