<svg width="432" height="804" viewBox="0 0 432 804" fill="none" xmlns="http://www.w3.org/2000/svg">
<path d="M422.236 380.109C405.96 381.411 393.021 383.446 383.418 386.213C373.978 388.817 367.712 393.781 364.619 401.105L230.342 735.09H205.195L60.6641 404.523C54.6419 391.177 35.8431 383.039 4.26758 380.109C1.50065 369.367 1.82617 358.869 5.24414 348.615C80.6022 350.894 145.951 351.219 201.289 349.592C204.544 358.869 204.544 369.204 201.289 380.598C180.293 382.225 167.109 384.016 161.738 385.969C156.367 387.922 154.821 391.91 157.1 397.932L240.84 592.512L318.232 397.932C319.209 395.327 318.477 393.049 316.035 391.096C313.757 388.98 309.85 387.271 304.316 385.969C298.945 384.667 293.493 383.609 287.959 382.795C282.425 381.981 275.671 381.249 267.695 380.598C265.091 369.855 265.417 359.357 268.672 349.104C322.383 351.057 373.245 350.894 421.26 348.615C424.515 358.869 424.84 369.367 422.236 380.109ZM414.18 370.588C415.482 365.868 415.482 362.043 414.18 359.113C392.858 360.09 371.048 360.578 348.75 360.578C327.428 360.578 303.258 360.09 276.24 359.113C274.938 362.043 274.938 365.868 276.24 370.588C283.564 371.239 289.668 371.89 294.551 372.541C299.596 373.192 305.7 374.413 312.861 376.203C320.023 377.993 324.987 380.76 327.754 384.504C330.684 388.247 331.172 392.561 329.219 397.443L228.145 651.594L120.234 400.617C115.514 389.549 117.386 382.388 125.85 379.133C134.476 375.715 156.449 372.867 191.768 370.588C193.07 365.868 193.07 362.043 191.768 359.113C143.753 361.392 83.9388 361.392 12.3242 359.113C10.8594 362.043 10.8594 365.868 12.3242 370.588C42.9232 373.518 62.0475 383.527 69.6973 400.617L211.787 725.08H223.262L355.342 397.443C359.899 388.166 367.061 381.737 376.826 378.156C386.755 374.413 399.206 371.89 414.18 370.588Z" fill="white"/>
<path d="M279.404 245.949H157.596C152.153 245.949 146.063 241.673 144.248 236.49L90.601 86.4323C82.9556 64.9212 91.8969 58.3125 110.298 71.53L160.835 107.684C169.258 113.515 178.847 110.535 182.476 101.075L205.282 40.3005C212.539 20.863 224.59 20.863 231.847 40.3005L254.653 101.075C258.282 110.535 267.871 113.515 276.165 107.684L323.592 73.8625C343.807 59.3493 353.526 66.7355 345.232 90.19L292.881 236.749C290.937 241.673 284.846 245.949 279.404 245.949Z" stroke="white" stroke-width="3" stroke-linecap="round" stroke-linejoin="round"/>
<path d="M147.229 285.083H289.771" stroke="white" stroke-width="3" stroke-linecap="round" stroke-linejoin="round"/>
<path d="M186.104 181.416H250.896" stroke="white" stroke-width="3" stroke-linecap="round" stroke-linejoin="round"/>
</svg>
